<svg xmlns="http://www.w3.org/2000/svg" width="21.472" height="18.027" viewBox="0 0 21.472 18.027"><g transform="translate(0 -34.019)"><g transform="translate(14.907 34.019)"><path d="M297.337,34.019a2.947,2.947,0,0,0,0,5.894,2.961,2.961,0,0,0,2.957-2.957A2.931,2.931,0,0,0,297.337,34.019Zm0,5.246a2.3,2.3,0,1,1,2.309-2.289A2.308,2.308,0,0,1,297.337,39.265Z" transform="translate(-294.4 -34.019)" fill="#0e4d90"/></g><g transform="translate(16.892 35.052)"><g transform="translate(0 0)"><path d="M335.484,56.789a.53.53,0,0,0-.061-.162.508.508,0,0,0-.081-.142c-.04-.041-.061-.081-.1-.122a.363.363,0,0,0-.142-.1.507.507,0,0,0-.142-.081c-.061-.02-.1-.061-.162-.081a1.4,1.4,0,0,1-.162-.061.154.154,0,0,1-.081-.041c-.02-.02-.061-.02-.081-.041s-.061-.02-.081-.041l-.061-.061a.105.105,0,0,1-.04-.081.122.122,0,0,1-.02-.081v-.1c0-.02.02-.061.02-.081.02-.02.02-.061.04-.081l.061-.061a.155.155,0,0,1,.1-.041.183.183,0,0,1,.1-.02h.122a.183.183,0,0,1,.1.02.878.878,0,0,1,.1.02c.02,0,.061.02.081.02.04,0,.061.02.081.02l.1.041.02-.122.04-.324v-.081l-.081-.02c-.02,0-.061-.02-.081-.02s-.041-.02-.081-.02a.876.876,0,0,0-.1-.02c-.04,0-.061-.02-.1-.02h-.02v-.385h-.486v.405h-.02a.719.719,0,0,0-.182.081.363.363,0,0,0-.142.1.876.876,0,0,0-.122.142.407.407,0,0,0-.081.162l-.061.182a.689.689,0,0,0-.02.2.446.446,0,0,0,.02.162.528.528,0,0,0,.061.162c.02.041.061.1.081.142.04.041.061.081.1.122a.363.363,0,0,0,.142.1.507.507,0,0,0,.142.081,1.2,1.2,0,0,1,.162.081,1.394,1.394,0,0,1,.162.061.154.154,0,0,1,.081.041c.02.02.061.02.081.041s.041.041.061.041l.061.061c.02.02.02.041.04.081a.877.877,0,0,1,.02.1v.1a.153.153,0,0,1-.04.081l-.061.061a.279.279,0,0,1-.081.061c-.02.02-.061.02-.081.041a.88.88,0,0,1-.1.02h-.263a.877.877,0,0,1-.1-.02.288.288,0,0,1-.122-.041c-.04-.02-.081-.02-.122-.041-.02,0-.04-.02-.061-.02s-.041-.02-.061-.02l-.122-.061-.02.142-.04.365V57.7l.061.02a.271.271,0,0,1,.182.02.376.376,0,0,0,.142.041c.04.02.1.02.162.041a.446.446,0,0,0,.162.02h.041v.405h.486v-.425h.02a.719.719,0,0,0,.182-.081.71.71,0,0,0,.162-.1.881.881,0,0,0,.122-.142,1.131,1.131,0,0,0,.1-.162l.061-.182a.625.625,0,0,0,.02-.2A.446.446,0,0,0,335.484,56.789Z" transform="translate(-333.6 -54.419)" fill="#0e4d90"/></g></g><g transform="translate(3.468 40.174)"><path d="M81.447,155.693a.345.345,0,0,0-.466-.061L77.7,158.245l-4.233-1.762a.323.323,0,0,0-.3.041l-4.537,3.241a.324.324,0,0,0-.081.446.3.3,0,0,0,.263.142.327.327,0,0,0,.182-.061l4.4-3.139,4.253,1.762a.364.364,0,0,0,.324-.041l3.423-2.714A.345.345,0,0,0,81.447,155.693Z" transform="translate(-68.489 -155.569)" fill="#0e4d90"/></g><g transform="translate(0 41.695)"><path d="M21.166,195.321h-1.5v-9.378a.32.32,0,0,0-.324-.324H16.366a.32.32,0,0,0-.324.324v9.378H14.948v-6.137a.32.32,0,0,0-.324-.324h-3a.32.32,0,0,0-.324.324v6.137H10.208V188.7a.32.32,0,0,0-.324-.324H6.907a.32.32,0,0,0-.324.324v6.623H5.489V190.6a.32.32,0,0,0-.324-.324h-3a.32.32,0,0,0-.324.324v4.719H.324a.324.324,0,0,0,0,.648H21.146a.32.32,0,0,0,.324-.324A.292.292,0,0,0,21.166,195.321Zm-16.345,0H2.491v-4.4H4.821Zm4.74,0H7.231v-6.3H9.56Zm4.719,0H11.95v-5.813h2.329Zm4.74,0H16.69v-9.054h2.329Z" transform="translate(0 -185.619)" fill="#0e4d90"/></g></g></svg>