<svg xmlns="http://www.w3.org/2000/svg" width="19.84" height="19.84" viewBox="0 0 19.84 19.84"><g transform="translate(-24.748 -24.75)"><path d="M46.929,46.567a.316.316,0,0,0,.445-.036,7.575,7.575,0,1,0-1.188,1.124.316.316,0,1,0-.382-.5,6.951,6.951,0,1,1,1.089-1.031.316.316,0,0,0,.036.446Z" transform="translate(-6.936 -6.95)" fill="#0e4d90"/><path d="M42.281,31.361a.315.315,0,0,0,.172-.051l.1-.067a.316.316,0,1,0-.338-.533l-.11.071a.316.316,0,0,0,.173.581Z" transform="translate(-12.865 -4.418)" fill="#0e4d90"/><path d="M34.668,24.75a9.856,9.856,0,0,0-3.879.787.316.316,0,0,0,.247.581A9.3,9.3,0,1,1,28.761,27.5a.316.316,0,1,0-.4-.487,9.919,9.919,0,1,0,6.309-2.265Z" fill="#0e4d90"/><path d="M59.37,46.456a.316.316,0,0,0,.632,0,2.044,2.044,0,0,0-1.727-2.016V43.15a.316.316,0,1,0-.632,0v1.29a2.04,2.04,0,0,0,0,4.032v2.812a1.412,1.412,0,0,1-1.1-1.374.316.316,0,1,0-.632,0,2.044,2.044,0,0,0,1.727,2.016v1.291a.316.316,0,1,0,.632,0V51.926a2.04,2.04,0,0,0,0-4.032V45.082A1.412,1.412,0,0,1,59.37,46.456Zm-2.822,0a1.412,1.412,0,0,1,1.1-1.374v2.747A1.413,1.413,0,0,1,56.548,46.456ZM59.37,49.91a1.412,1.412,0,0,1-1.1,1.374V48.537A1.413,1.413,0,0,1,59.37,49.91Z" transform="translate(-23.291 -13.514)" fill="#0e4d90"/></g></svg>