<?xml version="1.0" encoding="UTF-8"?>
<svg version="1.1" xmlns="http://www.w3.org/2000/svg" width="292" height="173">
<path d="M0 0 C96.36 0 192.72 0 292 0 C292 57.09 292 114.18 292 173 C195.64 173 99.28 173 0 173 C0 115.91 0 58.82 0 0 Z " fill="#FCFCFC" transform="translate(0,0)"/>
<path d="M0 0 C53.13 0 106.26 0 161 0 C161 57.09 161 114.18 161 173 C110.18 173 59.36 173 7 173 C7 172.67 7 172.34 7 172 C7.7027002 171.89042969 8.40540039 171.78085938 9.12939453 171.66796875 C39.19327499 166.8585299 65.65958392 158.17447172 88.3125 137.125 C93.29935575 132.53837344 97.02726834 130 104 130 C105.37535339 131.97133986 106.70211044 133.97681922 108 136 C113.27227289 141.54264586 119.88227592 143.51830095 127 146 C127 144.68 127 143.36 127 142 C125.989375 141.9175 124.97875 141.835 123.9375 141.75 C117.05055178 140.72251176 112.76449266 137.15326576 108.44750977 131.99755859 C106.11850461 128.78353934 104.74376043 125.2807064 103.25 121.625 C99.82609986 113.8618254 95.84693919 109.1199664 89 104 C87.18358255 102.50474621 85.37115396 101.0046352 83.5625 99.5 C81.71039887 97.99745035 79.85622171 96.49745617 78 95 C70.80965893 89.19938872 63.77004631 83.29008034 57 77 C56.42121094 76.47019531 55.84242188 75.94039063 55.24609375 75.39453125 C54 74 54 74 53.5625 71.5625 C54 69 54 69 55.5625 66.6875 C58.15484208 64.89280164 59.73686083 64.49708706 62.86547852 64.58276367 C67.58756739 65.50579351 71.61362643 68.36448073 75.6875 70.8125 C77.72595747 72.00103829 79.76503285 73.18851737 81.8046875 74.375 C82.83174805 74.97828125 83.85880859 75.5815625 84.91699219 76.203125 C89.67658039 78.97716437 94.48858666 81.65236131 99.3125 84.3125 C100.15965576 84.78598877 101.00681152 85.25947754 101.87963867 85.74731445 C102.65799072 86.1774585 103.43634277 86.60760254 104.23828125 87.05078125 C105.259823 87.61792847 105.259823 87.61792847 106.30200195 88.1965332 C107.98822107 89.14257253 107.98822107 89.14257253 110 89 C110 88.34 110 87.68 110 87 C98.615 80.565 98.615 80.565 87 74 C87 67 87 67 88 65 C91.49935152 64.82394903 94.99754924 64.71857693 98.5 64.625 C99.48226562 64.57472656 100.46453125 64.52445312 101.4765625 64.47265625 C107.8101269 64.34598496 111.53970423 65.16232367 116.36376953 69.36376953 C125.92194042 78.92194042 132.74503657 91.67395317 140 103 C148.37281985 118.83851551 148.37281985 118.83851551 160 131 C157.88908576 125.6675271 155.29794928 121.07847137 152.125 116.3125 C151.14182939 114.81516831 150.15876088 113.31776957 149.17578125 111.8203125 C148.40161865 110.64710449 148.40161865 110.64710449 147.61181641 109.45019531 C145.38736863 106.06871124 143.18839681 102.67094208 140.98852539 99.2734375 C138.8132116 95.91714855 136.62780686 92.56748453 134.44238281 89.21777344 C133.18050835 87.27754533 131.92815978 85.33167439 130.6796875 83.3828125 C122.25825243 70.21782263 122.25825243 70.21782263 109.36328125 62.05859375 C106.53813845 60.79311656 105.76202935 59.6930581 104.1875 57.0625 C103.67960937 56.25683594 103.17171875 55.45117188 102.6484375 54.62109375 C102.10445313 53.75613281 101.56046875 52.89117187 101 52 C93.17913515 40.30315587 83.99288392 30.45644522 72 23 C70.98679687 22.35417969 69.97359375 21.70835938 68.9296875 21.04296875 C59.43046571 15.2795198 49.50960766 11.52036747 39 8 C37.86304688 7.5978125 36.72609375 7.195625 35.5546875 6.78125 C24.06550579 3.05502891 11.96159931 2.22292912 0 1 C0 0.67 0 0.34 0 0 Z " fill="#FDFDFD" transform="translate(131,0)"/>
<path d="M0 0 C21.099375 -0.061875 42.19875 -0.12375 63.9375 -0.1875 C70.549021 -0.21481201 77.16054199 -0.24212402 83.97241211 -0.27026367 C92.17492676 -0.28381348 92.17492676 -0.28381348 96.03981018 -0.28633118 C98.68472933 -0.29087634 101.32918587 -0.30011321 103.97401428 -0.31672668 C125.94303647 -0.44849034 148.51670126 -0.39085632 169.5625 6.6875 C170.63765869 7.03417725 171.71281738 7.38085449 172.82055664 7.73803711 C181.69040103 10.69198649 189.91021301 14.3339095 198 19 C198.98613281 19.55171875 199.97226563 20.1034375 200.98828125 20.671875 C214.16409869 28.49909328 226.43351101 40.49703851 233.9375 53.8125 C237.17809092 59.33183313 239.79596165 61.52264318 245.62890625 63.9375 C254.08902398 67.72852475 258.75514048 77.28527087 263.57275391 84.78125 C265.06417095 87.09975805 266.56778127 89.40997593 268.07421875 91.71875 C270.25493416 95.06158552 272.42682878 98.4099277 274.59375 101.76171875 C276.94173751 105.38700599 279.3202783 108.98995685 281.71875 112.58203125 C282.32033936 113.48928955 282.92192871 114.39654785 283.54174805 115.33129883 C284.69998615 117.07688006 285.86524951 118.81782532 287.03833008 120.5534668 C287.55806396 121.34019775 288.07779785 122.12692871 288.61328125 122.9375 C289.07516846 123.62714844 289.53705566 124.31679687 290.01293945 125.02734375 C291 127 291 127 291 131 C287.16527583 129.51221945 285.70420901 127.49598782 283.5234375 124.06640625 C282.86126221 123.03749268 282.19908691 122.0085791 281.5168457 120.94848633 C280.99388412 120.12158798 280.99388412 120.12158798 280.46035767 119.27798462 C278.98291952 116.94278905 277.48379488 114.62179813 275.98622131 112.29948425 C275.19974811 111.07917616 274.41439596 109.85814489 273.63011169 108.63642883 C269.63384514 102.41240844 265.57286534 96.2323087 261.47955322 90.07174683 C260.33746473 88.35013249 259.20158224 86.62453783 258.06591797 84.89868164 C251.24059075 73.63212794 251.24059075 73.63212794 241 66 C237.23161674 65.51741278 233.48321737 65.39749687 229.6875 65.3125 C228.66076172 65.27833984 227.63402344 65.24417969 226.57617188 65.20898438 C224.05089037 65.12676591 221.5259446 65.05753064 219 65 C218.67 67.97 218.34 70.94 218 74 C218.63292969 74.22429687 219.26585937 74.44859375 219.91796875 74.6796875 C224.2235634 76.52416277 228.23494801 78.82715302 232.3125 81.125 C233.14845703 81.59292969 233.98441406 82.06085938 234.84570312 82.54296875 C236.89866233 83.6926259 238.95002202 84.84503802 241 86 C241 87.32 241 88.64 241 90 C236.84540999 88.72501812 233.21589403 87.1642209 229.4375 85.0234375 C228.39964355 84.43836426 227.36178711 83.85329102 226.29248047 83.25048828 C225.20596191 82.63157715 224.11944336 82.01266602 223 81.375 C221.88383301 80.74706543 220.76766602 80.11913086 219.61767578 79.47216797 C214.87670109 76.79955631 210.14898957 74.11403343 205.4921875 71.296875 C204.86441406 70.92127441 204.23664063 70.54567383 203.58984375 70.15869141 C202.00759547 69.20492728 200.43681617 68.23220536 198.8671875 67.2578125 C195.37219199 65.72458559 192.77895655 65.68697719 189 66 C186.95548981 67.04374022 186.95548981 67.04374022 186 69 C185.61599196 72.08742462 185.64706167 73.50513938 187.4765625 76.0703125 C192.55490559 80.92705516 197.84338154 85.34189966 203.40698242 89.62036133 C209.91995167 94.64569829 216.11283237 100.02962977 222.25756836 105.49633789 C223.4277404 106.50615849 224.62787704 107.48217451 225.85375977 108.42358398 C230.62787678 112.16164578 232.80042515 115.86362929 235.0625 121.4375 C238.02576761 128.60669582 241.5919673 136.03090117 249.0625 139.375 C250.06990234 139.82746094 250.06990234 139.82746094 251.09765625 140.2890625 C253.37285831 141.13934335 255.58935635 141.69866954 258 142 C258 143.32 258 144.64 258 146 C250.03220995 145.37096394 243.16314144 141.71204928 237.875 135.8125 C235 132.34792627 235 132.34792627 235 130 C227.28148373 131.89924121 222.42814986 135.05487627 216.75805664 140.57836914 C187.77073781 168.45025926 146.00612733 173.70761457 107.70668793 173.40512085 C104.27641045 173.38188803 100.84625063 173.38124441 97.41589355 173.37841797 C87.46469198 173.357648 77.51358841 173.30180411 67.5625 173.25 C45.266875 173.1675 22.97125 173.085 0 173 C0 115.91 0 58.82 0 0 Z M21.3125 44.8125 C8.19536253 59.83000014 4.55751348 75.79852726 5.72949219 95.29003906 C7.64557206 114.48542405 21.10518642 129.28413968 34.93359375 141.5546875 C49.68974544 153.32201356 67.77402706 160.62330075 86 165 C86.68239746 165.16516113 87.36479492 165.33032227 88.06787109 165.50048828 C109.25228174 170.33535377 134.92164771 170.31615819 156 165 C156.82322754 164.80132324 157.64645508 164.60264648 158.49462891 164.39794922 C179.11430145 159.32566935 202.46073236 150.35086967 217 134 C217 133.34 217 132.68 217 132 C216.49025635 131.73783691 215.9805127 131.47567383 215.45532227 131.20556641 C213.15456751 130.01802925 210.85852705 128.82165039 208.5625 127.625 C207.76005859 127.2125 206.95761719 126.8 206.13085938 126.375 C205.36708984 125.97539063 204.60332031 125.57578125 203.81640625 125.1640625 C203.10943604 124.79748535 202.40246582 124.4309082 201.67407227 124.05322266 C200 123 200 123 199 121 C198.58472799 116.32818984 199.30006009 113.82491487 202 110 C201.50628906 109.59007813 201.01257813 109.18015625 200.50390625 108.7578125 C199.86324219 108.21898438 199.22257813 107.68015625 198.5625 107.125 C197.60537109 106.32449219 197.60537109 106.32449219 196.62890625 105.5078125 C194.26780274 103.32223467 194.01344548 102.31596875 193.875 99.0625 C194 96 194 96 195 93 C187.06224828 90.91578586 179.12575643 89.20680868 171.0546875 87.74609375 C168 87 168 87 166 85 C165.58499234 78.15237368 167.49642086 71.05204436 168.875 64.375 C169.03629395 63.58810791 169.19758789 62.80121582 169.36376953 61.99047852 C172.47258104 47.52741896 172.47258104 47.52741896 175 45 C182.74610688 44.48415664 190.07943852 45.89986992 197.64892578 47.39868164 C199.7570691 47.8138923 201.86829048 48.2094087 203.98046875 48.60351562 C205.33616488 48.8660159 206.6916424 49.12964826 208.046875 49.39453125 C209.86977051 49.74801636 209.86977051 49.74801636 211.72949219 50.10864258 C215.00489165 51.00133319 217.32627488 51.9095477 220 54 C220.3125 57.6875 220.3125 57.6875 220 61 C223.63 61 227.26 61 231 61 C228.35859416 47.79297082 214.6117262 36.13660684 204.0625 28.375 C149.00394156 -7.93460089 67.49974655 -3.94937347 21.3125 44.8125 Z " fill="#0B0B0B" transform="translate(0,0)"/>
<path d="M0 0 C36.96 0 73.92 0 112 0 C112 0.33 112 0.66 112 1 C110.81470703 1.03867187 110.81470703 1.03867187 109.60546875 1.078125 C79.78158523 2.57784029 49.6735603 13.34322994 27 33 C25.77410156 34.05767578 25.77410156 34.05767578 24.5234375 35.13671875 C14.07050544 44.85327587 2.92981186 61.69057347 1.82299805 76.34326172 C1.25930589 100.1351133 5.94215583 117.67464529 22.3828125 135.59765625 C27.7958711 141.2228253 33.37554214 145.88013169 40 150 C40.54301758 150.34385742 41.08603516 150.68771484 41.64550781 151.04199219 C61.96452683 163.75400132 84.34701293 169.55641157 108 172 C108 172.33 108 172.66 108 173 C72.36 173 36.72 173 0 173 C0 115.91 0 58.82 0 0 Z " fill="#FCFCFC" transform="translate(0,0)"/>
<path d="M0 0 C3.125 0.4375 3.125 0.4375 5.1328125 2.5859375 C19.61816354 23.31987134 23.15328896 51.70130371 19 76.1875 C16.53973063 89.02688707 12.59965352 105.96284648 3.125 115.4375 C0.1875 115.8125 0.1875 115.8125 -2.875 115.4375 C-4.8125 113.75 -4.8125 113.75 -5.875 111.4375 C-5.40798267 107.33340835 -3.86673428 104.06111914 -2.0625 100.375 C9.38418522 75.999325 10.40815732 49.58052879 1.75 24.125 C-0.13478125 19.04528467 -2.34084573 14.30937728 -5.0546875 9.62109375 C-6.10740831 6.81885123 -5.78535113 5.2577115 -4.875 2.4375 C-2.875 0.4375 -2.875 0.4375 0 0 Z " fill="#040404" transform="translate(135.875,28.5625)"/>
<path d="M0 0 C1.670625 0.061875 1.670625 0.061875 3.375 0.125 C12.64292557 18.06647111 12.64292557 18.06647111 14.375 25.125 C14.57738281 25.94742188 14.77976563 26.76984375 14.98828125 27.6171875 C19.27135996 47.72143452 15.81090101 70.1181891 5.875 88.125 C3.375 91.125 3.375 91.125 0.25 92.25 C-2.625 92.125 -2.625 92.125 -5.625 90.125 C-7.14001932 85.60652132 -6.41907195 82.85620426 -4.37524414 78.62182617 C-4.04516357 77.96287354 -3.71508301 77.3039209 -3.375 76.625 C5.015476 58.52972697 6.157729 38.93631486 -0.625 20.125 C-2.16101047 16.38079746 -3.8103149 12.70449633 -5.55078125 9.05078125 C-6.64827127 6.06161752 -6.93100841 4.97505776 -5.625 2.125 C-3.625 0.125 -3.625 0.125 0 0 Z " fill="#040404" transform="translate(114.625,40.875)"/>
<path d="M0 0 C7.49991201 0.07481209 14.75526042 1.74801181 22.0703125 3.25 C23.5180542 3.53993752 24.9659701 3.82900666 26.4140625 4.1171875 C29.92654228 4.81813333 33.43652479 5.53077185 36.9453125 6.25 C36.80532743 8.00687857 36.65970618 9.76330864 36.51171875 11.51953125 C36.43123291 12.49768799 36.35074707 13.47584473 36.26782227 14.48364258 C35.90462035 17.59904066 35.12290068 20.34528248 33.9453125 23.25 C28.71845823 21.32636218 24.09236661 18.5149839 19.296875 15.7109375 C15.5295865 14.0687861 13.01315361 13.88949672 8.9453125 14.25 C6.11841455 15.50639909 4.47526289 16.57551768 2.5703125 19 C1.59877929 22.49751955 1.99452314 24.74396424 2.9453125 28.25 C6.10501762 33.07704137 10.44588026 36.71473181 14.9453125 40.25 C11.66779411 41.30921822 9.35889003 41.16441746 5.99609375 40.5078125 C5.06603516 40.32863281 4.13597656 40.14945313 3.17773438 39.96484375 C2.21416016 39.77019531 1.25058594 39.57554688 0.2578125 39.375 C-1.20495117 39.09462891 -1.20495117 39.09462891 -2.69726562 38.80859375 C-9.91191153 37.39277597 -9.91191153 37.39277597 -11.0546875 36.25 C-11.6391774 28.67018655 -9.81967671 21.66398085 -8.1171875 14.3125 C-7.83939453 13.06919922 -7.56160156 11.82589844 -7.27539062 10.54492188 C-4.90507744 0.09840908 -4.90507744 0.09840908 0 0 Z " fill="#F7F7F7" transform="translate(180.0546875,47.75)"/>
<path d="M0 0 C3.61328125 1.03515625 3.61328125 1.03515625 5.7578125 3.9140625 C6.34095234 5.12926774 6.89637347 6.35809857 7.42578125 7.59765625 C7.71130859 8.19384766 7.99683594 8.79003906 8.29101562 9.40429688 C14.35263154 22.52607796 14.96965926 39.57583675 10.92578125 53.41015625 C6.606161 65.0422765 6.606161 65.0422765 2.61328125 69.03515625 C-0.44431932 69.30103456 -2.5951268 69.46925506 -5.32421875 67.97265625 C-7.03711933 64.84913166 -6.31921365 62.30443897 -5.38671875 59.03515625 C-4.17263902 55.66772565 -2.88448171 52.34212217 -1.54296875 49.0234375 C2.95219875 37.40585933 1.01793079 25.36139792 -3.38671875 14.03515625 C-3.97946138 12.69670516 -4.58143964 11.3622373 -5.19921875 10.03515625 C-6.49928781 6.75077126 -6.6054478 5.31634986 -5.38671875 2.03515625 C-3.38671875 0.03515625 -3.38671875 0.03515625 0 0 Z " fill="#020202" transform="translate(92.38671875,51.96484375)"/>
<path d="M0 0 C3.19410322 0.68445069 4.51182208 2.01592663 6.421875 4.62109375 C12.24614317 14.01934466 13.33839143 23.98509511 10.89453125 34.79296875 C9.18083277 39.97603231 7.34141007 44.49134925 2.625 47.5625 C-1.1875 47.375 -1.1875 47.375 -4.375 46.5625 C-5.86799065 40.59053738 -5.86799065 40.59053738 -4.55078125 37.84375 C-3.99970703 36.96203125 -3.99970703 36.96203125 -3.4375 36.0625 C-0.07162432 30.05787162 -0.61737411 23.22086601 -1.375 16.5625 C-2.42372662 13.58809434 -3.75443572 11.29720222 -5.375 8.5625 C-5.85164858 5.49833056 -5.87539814 4.32626558 -4.1875 1.75 C-2.375 0.5625 -2.375 0.5625 0 0 Z " fill="#030303" transform="translate(70.375,62.4375)"/>
<path d="M0 0 C4.26987694 0.14360573 7.09565257 3.37773136 10.125 6.0625 C11.27620483 7.06381092 12.42856222 8.06379818 13.58203125 9.0625 C14.1538916 9.55878906 14.72575195 10.05507812 15.31494141 10.56640625 C18.53898721 13.30932091 21.9077951 15.87066684 25.26953125 18.44140625 C25.84058594 18.95574219 26.41164062 19.47007813 27 20 C27 20.66 27 21.32 27 22 C20.45976203 23.2012682 15.88584408 22.3946266 10.46337891 18.66748047 C5.64290855 15.11454415 1.00014877 11.48797179 -3 7 C-2.91985673 3.55383944 -2.4443896 2.4443896 0 0 Z " fill="#F7F7F7" transform="translate(200,94)"/>
<path d="M0 0 C3.03511373 1.10367772 5.34214774 2.24235465 8 4.125 C12.46828506 6.84353627 17.06646347 6.08040484 22.109375 5.65234375 C25 6 25 6 26.953125 8.31640625 C28 11 28 11 27 14 C23.47382451 16.23489996 20.15144477 16.95792455 16 17 C10.28414765 15.21922946 5.12777468 12.02702165 0 9 C-0.66 8.67 -1.32 8.34 -2 8 C-2.125 5.125 -2.125 5.125 -2 2 C-1.34 1.34 -0.68 0.68 0 0 Z " fill="#F4F4F4" transform="translate(204,113)"/>
</svg>
