<svg xmlns="http://www.w3.org/2000/svg" viewBox="0 0 100 100" x="0px" y="0px" stroke='#2C619B' >
    <g data-name="07-Tax refund">
        <path d="M94,68.64H85.29a1,1,0,0,0-1,1v2.46a.65.65,0,0,0-.2,0L73,76.45l-7.38.09L55.2,73.88a1,1,0,0,0-.93.21A16.52,16.52,0,0,0,51.43,77a11.4,11.4,0,0,0-.74,2.93l-11-2.53-4.26-2.21a3.15,3.15,0,0,0-4.23.64l-.8,1a3.37,3.37,0,0,0,.44,4.69l4.35,3.72a1,1,0,0,0,.27.17L46,89.75,62.43,95a1.12,1.12,0,0,0,.31,0L63,95l21.3-4.26V94a1,1,0,0,0,1,1H94a1,1,0,0,0,1-1V69.68A1,1,0,0,0,94,68.64Zm-9.74,20L62.8,92.89,46.67,87.8,36.42,83.52l-4.23-3.61A1.31,1.31,0,0,1,32,78.1l.8-1a1.07,1.07,0,0,1,1.47-.2l.12.07,4.44,2.3a.77.77,0,0,0,.25.1L50.37,82h.08a1,1,0,0,0,.69.84L59,85.41l.18,0,6.07.87h.15a1,1,0,0,0,.14-2.07l-6-.86-6.91-2.3a17.48,17.48,0,0,1,.63-3.1,13.84,13.84,0,0,1,2-2l10,2.56a1.26,1.26,0,0,0,.27,0l(7.7-.11a1,1,0,0,0,.36-.06l10.73-4.13V88.6S84.23,88.6,84.22,88.6Zm8.7,4.32H86.33V70.72h6.59Z"/>
        <path d="M69.19,70.17a7.54,7.54,0,0,0,7.38-7.68V18.73s0-.05,0-.07a2.38,2.38,0,0,0,0-.26.36.36,0,0,0,0-.09.8.8,0,0,0-.19-.3h0l-.11-.11-12-12.57A1,1,0,0,0,63.41,5H30.08a1,1,0,0,0-1,1V58.65H20.72a1,1,0,0,0-1,1c0,5.78,4.13,10.48,9.21,10.48h40.3ZM64.45,8.68l8.64,9H64.45ZM31.12,7.08H62.37V18.73a1,1,0,0,0,1,1H74.49V62.49a5.46,5.46,0,0,1-5.3,5.6H68.05a3.35,3.35,0,0,1-.53-.19c-.17-.06-.34-.11-.5-.18s-.35-.21-.52-.31a4.21,4.21,0,0,1-.45-.28,4.6,4.6,0,0,1-.47-.41c-.13-.12-.27-.23-.4-.36a5,5,0,0,1-.41-.5c-.11-.14-.23-.27-.34-.42s-.23-.4-.35-.6-.18-.29-.26-.45-.19-.46-.28-.7-.13-.3-.18-.46a7.86,7.86,0,0,1-.19-.84c0-.14-.08-.27-.1-.41a9.22,9.22,0,0,1-.1-1.29v-1a1,1,0,0,0-1-1H31.12Zm-2.23,61c-3.63,0-6.63-3.21-7.07-7.36H60.89a7.77,7.77,0,0,0,.06,1L61,62c0,.23.07.46.11.68l.06.3c.06.24.12.48.19.72l.06.2a9.25,9.25,0,0,0,.32.88l.09.19c.1.22.2.44.32.65s.09.17.14.26l.34.56.16.23c.17.24.35.48.54.71h0a7.31,7.31,0,0,0,.6.64l.06.07Z"/>
        <path d="M33.56,15.1h8.73a1,1,0,0,0,0-2.08H33.56a1,1,0,1,0,0,2.08Z"/>
        <path d="M46.3,16.94a1,1,0,0,0-1-1H33.56a1,1,0,0,0,0,2.08h11.7A1,1,0,0,0,46.3,16.94Z"/>
        <circle cx="47.67" cy="16.94" r="0.72"/>
        <path d="M68.94,39.2a1,1,0,0,0-2.08,0,15.31,15.31,0,1,1-6.3-12.36H59.47a1,1,0,1,0,0,2.08h3.8a1,1,0,0,0,1-1V24.09a1,1,0,1,0-2.08,0V25.5a17.36,17.36,0,1,0,6.71,13.7Z"/>
        <path d="M62.51,31.87H42.69a1,1,0,0,0-1,1V35h-1a1,1,0,0,0-1.05,1v9.48a1,1,0,0,0,1.05,1H59.58a1,1,0,0,0,1-1v-1h1.89a1,1,0,0,0,1-1V32.91A1,1,0,0,0,62.51,31.87Zm-4,12.58H41.67v-7.4H58.54Zm2.93-2.07h-.85V36a1,1,0,0,0-1-1H43.73V34H61.47Z"/>
        <path d="M48.49,43.4a3.08,3.08,0,0,0,1.61.45,3.18,3.18,0,0,0,.74-.09,3.09,3.09,0,1,0-2.35-.36Zm1.37-3.64.24,0a1,1,0,0,1,1,.78,1,1,0,0,1-.75,1.23,1,1,0,0,1-.48-2Z"/>
    </g>
</svg>
