<svg fill="none" height="24" viewBox="0 0 24 24" width="24" xmlns="http://www.w3.org/2000/svg"><g stroke="#292929"><path d="m10.5099 3.66452c.7949-.88801 2.1853-.88801 2.9802 0l.7008.78277c.4051.45257.994.69648 1.6005.66295l1.049-.05799c1.19-.06579 2.1731.91731 2.1073 2.10735l-.0579 1.04901c-.0336.6065.2103 1.19537.6629 1.60052l.7828.70077c.888.7949.888 2.1853 0 2.9802l-.7828.7008c-.4526.4051-.6965.994-.6629 1.6005l.0579 1.049c.0658 1.19-.9173 2.1731-2.1073 2.1073l-1.049-.0579c-.6065-.0336-1.1954.2103-1.6005.6629l-.7008.7828c-.7949.888-2.1853.888-2.9802 0l-.70077-.7828c-.40515-.4526-.99402-.6965-1.60052-.6629l-1.04901.0579c-1.19004.0658-2.17314-.9173-2.10735-2.1073l.05799-1.049c.03353-.6065-.21038-1.1954-.66295-1.6005l-.78277-.7008c-.88801-.7949-.88801-2.1853 0-2.9802l.78277-.70077c.45257-.40515.69648-.99402.66295-1.60052l-.05799-1.04901c-.06579-1.19004.91731-2.17314 2.10735-2.10735l1.04901.05799c.6065.03353 1.19537-.21038 1.60052-.66295z"/><g stroke-linejoin="round"><path d="m9.5 9.5h.01v.01h-.01z" stroke-width="1.5"/><path d="m14.5 14.5h.01v.01h-.01z" stroke-width="1.5"/><path d="m15 9-6 6" stroke-linecap="round"/></g></g></svg>