<svg xmlns="http://www.w3.org/2000/svg" width="21.075" height="17.158" viewBox="0 0 21.075 17.158"><path d="M20.611,60.542H17.8V48.721l1.1-1.086v1.688a.464.464,0,0,0,.928,0V46.467A.464.464,0,0,0,19.365,46H16.509a.464.464,0,0,0,0,.928h1.784l-6.922,6.851L8.089,50.475a.464.464,0,0,0-.329-.137h0a.464.464,0,0,0-.329.137L1.173,56.785a.464.464,0,1,0,.659.654l.556-.561v3.664H.928V44.776a.464.464,0,0,0-.928,0v16.23a.464.464,0,0,0,.464.464H20.611a.464.464,0,1,0,0-.928Zm-3.735,0H11.833V54.631l5.043-4.991ZM8.224,51.929l2.681,2.7v5.913H8.224ZM3.317,55.941,7.3,51.929v8.612H3.317Z" transform="translate(0 -44.312)" fill="#0e4d90"/></svg>