<?xml version="1.0" encoding="UTF-8"?>
<svg version="1.1" xmlns="http://www.w3.org/2000/svg" width="416" height="416">
<path d="M0 0 C137.28 0 274.56 0 416 0 C416 137.28 416 274.56 416 416 C278.72 416 141.44 416 0 416 C0 278.72 0 141.44 0 0 Z " fill="#FEFEFE" transform="translate(0,0)"/>
<path d="M0 0 C0.82639481 -0.0065712 1.65278961 -0.0131424 2.50422668 -0.01991272 C5.24150688 -0.03963618 7.97873218 -0.05130743 10.71606445 -0.0612793 C12.12016036 -0.06739259 12.12016036 -0.06739259 13.55262184 -0.07362938 C18.50903731 -0.09448805 23.46542513 -0.10878953 28.421875 -0.11816406 C33.53184982 -0.12921605 38.6413877 -0.1636026 43.75120831 -0.20333576 C47.6881438 -0.22953194 51.62497576 -0.23785866 55.56199074 -0.24144554 C57.44497433 -0.24630529 59.32795349 -0.2579018 61.21085167 -0.27648354 C63.85315511 -0.30093457 66.49433589 -0.29989904 69.13671875 -0.29296875 C69.90740692 -0.30577881 70.67809509 -0.31858887 71.47213745 -0.33178711 C77.02139235 -0.27902233 81.24205063 1.11455765 85.8918457 4.17700195 C90.03663155 8.53993443 92.16405766 12.21861103 92.06938171 18.25787354 C92.05361084 19.79647034 92.05361084 19.79647034 92.03752136 21.3661499 C92.00541313 23.04611053 92.00541313 23.04611053 91.97265625 24.76000977 C91.94353235 27.21518619 91.91471273 29.67036625 91.88615417 32.12554932 C91.85836915 34.08061275 91.85836915 34.08061275 91.83002281 36.07517242 C91.77450027 40.16283013 91.74826378 44.25034465 91.72944641 48.33831787 C91.72617818 49.02993114 91.72290995 49.7215444 91.71954268 50.43411565 C91.71301124 51.84861449 91.70659336 53.26311387 91.70028651 54.67761374 C91.65771475 64.18970814 91.60107193 73.7002155 91.44287109 83.21118164 C91.33627221 89.6325504 91.2841091 96.05190142 91.292826 102.47418094 C91.29537574 105.86592637 91.2719287 109.25263435 91.18182945 112.64328766 C90.48351907 129.82763208 90.48351907 129.82763208 98.09932423 144.59366989 C101.18620218 147.70639479 104.44475998 150.47552287 107.8918457 153.17700195 C108.93783211 154.07450512 109.97786657 154.9790258 111.0098114 155.89263916 C112.60882998 157.30512137 114.21004818 158.71511836 115.8137207 160.12231445 C132.62597841 176.74496024 134.38365869 207.77692136 137.66113281 229.94262695 C141.22951162 253.62067636 151.14959573 274.96540669 165.78637695 293.9543457 C167.8918457 297.17700195 167.8918457 297.17700195 167.5234375 299.37841797 C167.31501221 299.97195068 167.10658691 300.5654834 166.8918457 301.17700195 C165.9018457 301.17700195 164.9118457 301.17700195 163.8918457 301.17700195 C162.24883504 299.14740055 160.8542945 297.18102879 159.4543457 294.98950195 C159.02476562 294.32893799 158.59518555 293.66837402 158.15258789 292.98779297 C154.49806038 287.28722637 151.03852209 281.47159479 147.6418457 275.61450195 C147.15917236 274.78990479 146.67649902 273.96530762 146.17919922 273.11572266 C139.5436091 261.47479425 135.18950497 250.20419704 133.16137695 237.01831055 C132.81937238 234.79980735 132.45444744 232.58611095 132.08325195 230.37231445 C131.58171757 227.38015232 131.08572382 224.38717906 130.59448242 221.39331055 C128.4086602 208.17539603 126.06496937 194.95006556 121.9543457 182.17700195 C121.7377832 181.48928711 121.5212207 180.80157227 121.2980957 180.09301758 C117.66095722 169.56609963 110.36366529 162.2430434 102.5168457 154.61450195 C101.59000977 153.70120117 100.66317383 152.78790039 99.70825195 151.84692383 C97.44285741 149.61656116 95.17073239 147.39356285 92.8918457 145.17700195 C91.62120967 151.63066374 91.78849775 155.30972003 95.3293457 161.11450195 C98.8918457 167.0752407 98.8918457 167.0752407 98.8918457 169.17700195 C97.5718457 169.50700195 96.2518457 169.83700195 94.8918457 170.17700195 C93.22067866 167.28374588 91.55523745 164.38723494 89.8918457 161.48950195 C89.10064331 160.11121216 89.10064331 160.11121216 88.29345703 158.70507812 C85.06679855 153.05830956 81.89495991 147.38510519 78.77856445 141.67700195 C78.43020538 141.04013962 78.08184631 140.40327728 77.72293091 139.74711609 C76.00418271 136.60377889 74.29176147 133.45726115 72.58911133 130.30517578 C65.90677579 116.76403123 65.90677579 116.76403123 54.8918457 107.17700195 C51.29885498 106.7987924 48.91985436 106.6187822 45.7121582 108.3605957 C43.68471952 110.06035781 43.68471952 110.06035781 43.32543945 112.6730957 C43.32672852 113.64375977 43.32801758 114.61442383 43.3293457 115.61450195 C43.29647461 117.03569336 43.29647461 117.03569336 43.26293945 118.4855957 C45.01690077 128.78058603 50.84462292 138.14118584 55.8293457 147.17700195 C71.82702592 176.36453552 71.82702592 176.36453552 68.8918457 196.17700195 C67.92996636 204.88810646 69.45429465 210.29285713 74.8918457 217.17700195 C77.31267905 219.8762397 79.78514441 222.52598368 82.37158203 225.06738281 C83.79418945 226.51293945 83.79418945 226.51293945 85.8918457 229.17700195 C85.70825195 231.52856445 85.70825195 231.52856445 84.8918457 233.17700195 C74.84767732 228.91864485 68.10956146 218.2274235 63.74731445 208.66918945 C62.87876225 206.13888669 62.65345968 204.27445342 62.7043457 201.61450195 C62.71079102 200.87071289 62.71723633 200.12692383 62.72387695 199.3605957 C62.89071669 197.19167913 63.36260045 195.28138188 63.8918457 193.17700195 C63.93072919 190.84399263 63.9367092 188.50990395 63.8918457 186.17700195 C63.0874707 186.81637695 62.2830957 187.45575195 61.4543457 188.11450195 C57.53333263 190.77552521 53.52541769 190.97106542 48.8918457 191.17700195 C48.8299707 192.37325195 48.7680957 193.56950195 48.7043457 194.80200195 C48.09918227 199.48580116 46.37838795 201.9178429 42.8918457 205.17700195 C38.06482196 207.85868181 34.38146118 208.51310086 28.8918457 208.17700195 C29.2218457 208.83700195 29.5518457 209.49700195 29.8918457 210.17700195 C30.23629117 215.42979534 30.46926321 219.00334819 26.8918457 223.17700195 C23.0096661 225.62446301 20.41150259 226.32255023 15.8918457 226.17700195 C25.00094103 241.77104924 35.57607267 250.69677857 51.2980957 259.0559082 C52.26005859 259.57096924 53.22202148 260.08603027 54.21313477 260.61669922 C56.11415339 261.62948765 58.02206278 262.62948518 59.93774414 263.61425781 C69.06557953 268.43955607 76.32857717 274.59600173 82.2668457 283.05200195 C82.720354 283.68493164 83.1738623 284.31786133 83.64111328 284.9699707 C108.8918457 320.77551797 108.8918457 320.77551797 108.8918457 333.17700195 C106.5871582 333.1105957 106.5871582 333.1105957 103.8918457 332.17700195 C102.59616711 329.8243224 101.67783674 327.73804396 100.7668457 325.23950195 C95.49915597 312.13469835 87.67485444 300.54863899 79.6418457 288.98950195 C79.17109619 288.30702393 78.70034668 287.6245459 78.21533203 286.92138672 C73.31409295 280.01559976 68.09542609 274.42997645 60.5793457 270.36450195 C59.9925 270.03957764 59.4056543 269.71465332 58.80102539 269.37988281 C56.10027375 267.88900343 53.38052023 266.43568063 50.65405273 264.99243164 C41.08312164 259.92203305 32.45047238 255.10365166 24.8918457 247.17700195 C24.22411133 246.51700195 23.55637695 245.85700195 22.8684082 245.17700195 C11.17203597 232.97209179 3.82457575 216.79276925 -3.73388672 201.88598633 C-4.66551279 200.04954595 -5.60608163 198.21761994 -6.5546875 196.38989258 C-7.00803467 195.5075293 -7.46138184 194.62516602 -7.9284668 193.71606445 C-8.33468262 192.93183105 -8.74089844 192.14759766 -9.15942383 191.33959961 C-10.59366099 188.07030656 -10.71352671 185.67470921 -10.1081543 182.17700195 C-8.08149192 178.47310174 -6.62770914 176.52337185 -3.1081543 174.17700195 C-0.84643555 173.76293945 -0.84643555 173.76293945 1.5793457 173.55200195 C2.79170898 173.43985352 2.79170898 173.43985352 4.02856445 173.32543945 C4.64344727 173.27645508 5.25833008 173.2274707 5.8918457 173.17700195 C5.34671964 170.06787278 5.34671964 170.06787278 2.8918457 167.17700195 C-0.35393781 166.37557393 -3.54891279 166.0305708 -6.86987305 165.6574707 C-12.32297518 164.84838559 -15.55612436 162.77097864 -19.4206543 158.80200195 C-22.39009534 154.18287145 -23.35695039 149.82910903 -23.37557983 144.38418579 C-23.3841098 143.25158829 -23.39263977 142.11899078 -23.40142822 140.95207214 C-23.40052185 139.72386246 -23.39961548 138.49565277 -23.39868164 137.23022461 C-23.40539886 135.92546677 -23.41211609 134.62070892 -23.41903687 133.27641296 C-23.43665426 129.7081442 -23.44139041 126.13997144 -23.44266844 122.57166338 C-23.44409291 120.3393241 -23.44836808 118.10700901 -23.45366287 115.87467575 C-23.47214839 108.07830005 -23.48033526 100.2819926 -23.47875977 92.4855957 C-23.47755846 85.23166995 -23.49866229 77.97804178 -23.53024709 70.72419131 C-23.55644264 64.48449233 -23.56712571 58.24489036 -23.56584895 52.00513685 C-23.56534031 48.28361813 -23.57096855 44.5623641 -23.59220505 40.84090042 C-23.61525869 36.68791773 -23.60604659 32.53559758 -23.59399414 28.38256836 C-23.60523315 27.15840714 -23.61647217 25.93424591 -23.62805176 24.67298889 C-23.57036385 16.8457511 -22.81036592 10.92184941 -17.07299805 5.1184082 C-16.40397461 4.66336914 -15.73495117 4.20833008 -15.0456543 3.73950195 C-14.37405273 3.26641602 -13.70245117 2.79333008 -13.01049805 2.3059082 C-8.810132 -0.18671148 -4.72420316 0.01626892 0 0 Z " fill="#070707" transform="translate(174.108154296875,82.822998046875)"/>
<path d="M0 0 C49 0 49 0 57 4 C59.86714318 7.48210988 60.37355796 10.12634935 60.36076355 14.57453918 C60.36488754 15.68366669 60.36901154 16.79279419 60.3732605 17.93553162 C60.36247467 19.14250198 60.35168884 20.34947235 60.34057617 21.59301758 C60.34123329 23.51068939 60.34123329 23.51068939 60.34190369 25.46710205 C60.34276319 28.96475548 60.32514501 32.46209923 60.30418181 35.9596808 C60.28540738 39.61785445 60.28366397 43.27603548 60.28010559 46.93424988 C60.27078736 53.85797332 60.24617665 60.78155437 60.21605712 67.70521516 C60.18250615 75.58907877 60.16602536 83.47294923 60.15097082 91.35686648 C60.11962684 107.57132762 60.06687074 123.78564563 60 140 C57.14400043 136.50482632 54.88644984 133.1631872 52.828125 129.140625 C52.24546875 128.02429688 51.6628125 126.90796875 51.0625 125.7578125 C49.86382748 123.43796785 48.67101421 121.11508537 47.484375 118.7890625 C40.37646533 105.20949569 40.37646533 105.20949569 28 97 C21.97899625 96.23369043 18.80876737 97.60557597 14 101 C10.99987854 105.70019029 11.38370776 110.62566655 12 116 C14.59313356 126.78059078 20.13924012 136.18677295 25.70727539 145.66162109 C27.58036851 149.04981484 29.26862282 152.53724564 31 156 C20.77 156 10.54 156 0 156 C0 104.52 0 53.04 0 0 Z " fill="#FBFBFB" transform="translate(201,88)"/>
<path d="M0 0 C0.7031153 -0.00694553 1.4062306 -0.01389106 2.13065243 -0.02104706 C4.48073722 -0.03930678 6.82981132 -0.02905642 9.17993164 -0.01878357 C10.86712397 -0.02584256 12.55430996 -0.03458749 14.2414856 -0.04489136 C18.81999536 -0.06739615 23.39815962 -0.06444332 27.97670364 -0.05556989 C31.79894198 -0.0504609 35.62111534 -0.05775174 39.44334698 -0.06504196 C48.45944076 -0.08204405 57.47536529 -0.07847155 66.49145508 -0.06175232 C75.79437907 -0.04482436 85.09683406 -0.06067405 94.39970684 -0.0929752 C102.38711616 -0.11965861 110.37437938 -0.12695067 118.3618288 -0.11846012 C123.13234682 -0.11352801 127.90258253 -0.11576202 132.67306519 -0.13624763 C137.15810352 -0.1545856 141.64246623 -0.14866947 146.12746811 -0.12404823 C147.77340227 -0.11903459 149.41938775 -0.1225445 151.06528091 -0.13519669 C153.3126913 -0.15110624 155.55787097 -0.13620055 157.80517578 -0.11352539 C159.69110191 -0.11264593 159.69110191 -0.11264593 161.61512756 -0.1117487 C165.79931722 0.68553188 167.28496103 2.22319845 169.90258789 5.5146637 C170.54423523 8.32215881 170.54423523 8.32215881 170.56542969 11.41896057 C170.59391243 13.16602295 170.59391243 13.16602295 170.62297058 14.94837952 C170.61598648 16.1974408 170.60900238 17.44650208 170.60180664 18.7334137 C170.6125396 20.66936401 170.6125396 20.66936401 170.62348938 22.64442444 C170.63534834 25.37147907 170.62869886 28.09771644 170.609375 30.82472229 C170.58647984 34.31241769 170.61327836 37.79767807 170.65443707 41.28513336 C170.68622084 44.62221221 170.67301712 47.95869363 170.66430664 51.2959137 C170.67958908 52.54497498 170.69487152 53.79403625 170.71061707 55.08094788 C170.59833545 63.41840771 170.59833545 63.41840771 168.69018555 66.42498779 C165.72450775 69.11879003 162.88008072 70.13081606 158.94165039 70.00294495 C157.61713867 69.97877502 157.61713867 69.97877502 156.26586914 69.95411682 C155.36223633 69.91222229 154.45860352 69.87032776 153.52758789 69.8271637 C152.60075195 69.8046051 151.67391602 69.78204651 150.71899414 69.75880432 C148.44615656 69.70022603 146.17415714 69.61055546 143.90258789 69.5146637 C143.90258789 66.2146637 143.90258789 62.9146637 143.90258789 59.5146637 C148.85258789 59.1846637 153.80258789 58.8546637 158.90258789 58.5146637 C158.90258789 43.0046637 158.90258789 27.4946637 158.90258789 11.5146637 C105.77258789 11.1846637 52.64258789 10.8546637 -2.09741211 10.5146637 C-1.76741211 26.3546637 -1.43741211 42.1946637 -1.09741211 58.5146637 C3.85258789 58.8446637 8.80258789 59.1746637 13.90258789 59.5146637 C13.90258789 62.8146637 13.90258789 66.1146637 13.90258789 69.5146637 C10.67291409 69.59578108 7.44528775 69.65521962 4.21508789 69.7021637 C3.30307617 69.72730042 2.39106445 69.75243713 1.45141602 69.77833557 C-7.10636734 69.87169321 -7.10636734 69.87169321 -11.09741211 66.5146637 C-12.42419163 63.86110465 -12.25386575 61.81487859 -12.2902832 58.84327698 C-12.30634613 57.65509369 -12.32240906 56.4669104 -12.33895874 55.24272156 C-12.3832835 49.81139078 -12.42490533 44.38020542 -12.44750977 38.94874573 C-12.46085687 36.07928135 -12.48872267 33.21052685 -12.52954102 30.34132385 C-12.57883261 26.8765183 -12.60362585 23.41235726 -12.61073685 19.94721603 C-12.62071637 17.98615976 -12.65496722 16.02527571 -12.68954468 14.0644989 C-12.68669464 12.87001129 -12.6838446 11.67552368 -12.6809082 10.44483948 C-12.68899506 9.39386078 -12.69708191 8.34288208 -12.70541382 7.26005554 C-11.2626761 0.74546799 -5.87503845 0.01311618 0 0 Z " fill="#060606" transform="translate(130.097412109375,56.48533630371094)"/>
<path d="M0 0 C0 51.48 0 102.96 0 156 C-7.96226415 156 -7.96226415 156 -11.25 153.875 C-11.89453125 153.48054687 -12.5390625 153.08609375 -13.203125 152.6796875 C-17.33838258 148.81412063 -18.19898455 144.71738417 -18.38768005 139.23841858 C-18.40853126 136.86874797 -18.41279372 134.49889662 -18.40405273 132.12915039 C-18.41434761 130.18423454 -18.41434761 130.18423454 -18.42485046 128.20002747 C-18.4427525 124.65449919 -18.44161914 121.1092188 -18.43590808 117.56365895 C-18.43281188 114.59900308 -18.43891347 111.63439452 -18.44494683 108.66974539 C-18.45898077 101.67342608 -18.45744027 94.67722891 -18.44604492 87.6809082 C-18.4345649 80.47352549 -18.44863972 73.26651495 -18.4754414 66.05918127 C-18.49762336 59.86109875 -18.50423018 53.66313283 -18.49836498 47.46501344 C-18.49500012 43.76757577 -18.49737886 40.07037662 -18.51461601 36.37297249 C-18.53300601 32.24849126 -18.51887255 28.12473064 -18.50170898 24.00024414 C-18.51137695 22.78183838 -18.52104492 21.56343262 -18.53100586 20.30810547 C-18.47297435 13.64910092 -18.01854508 9.39758083 -14 4 C-12.32421875 2.44140625 -12.32421875 2.44140625 -10.6875 1.5625 C-10.15511719 1.25441406 -9.62273437 0.94632812 -9.07421875 0.62890625 C-7 0 -7 0 0 0 Z " fill="#FAFAFA" transform="translate(174,88)"/>
<path d="M0 0 C7.59 0 15.18 0 23 0 C25.21030049 4.00973102 27.39322769 8.03065333 29.5625 12.0625 C30.50512695 13.7630957 30.50512695 13.7630957 31.46679688 15.49804688 C32.35141602 17.15610352 32.35141602 17.15610352 33.25390625 18.84765625 C33.80377197 19.85836182 34.3536377 20.86906738 34.92016602 21.91040039 C36.2574094 25.73649467 35.97976488 28.09567594 35 32 C31.80636857 35.75251693 29.42216881 37.33455917 24.5 37.875 C21.76806771 37.63897019 20.42852283 37.44842804 18.50732422 35.43798828 C14.52211374 29.08129176 10.97927683 22.51833123 7.56591797 15.84033203 C6.61095769 13.97253478 5.64790937 12.10907566 4.68359375 10.24609375 C0 1.15726688 0 1.15726688 0 0 Z " fill="#FCFCFC" transform="translate(182,249)"/>
<path d="M0 0 C2.36240719 1.03659999 2.95215524 1.91073 4.22143555 4.13525391 C4.64142822 4.85583984 5.0614209 5.57642578 5.49414062 6.31884766 C5.96746826 7.15287109 6.4407959 7.98689453 6.9284668 8.84619141 C7.49782959 9.80396484 8.06719238 10.76173828 8.65380859 11.74853516 C10.56651592 14.97310722 12.43720628 18.21954731 14.3034668 21.47119141 C14.95702148 22.57720703 15.61057617 23.68322266 16.28393555 24.82275391 C16.89624023 25.89525391 17.50854492 26.96775391 18.1394043 28.07275391 C18.69934082 29.03777832 19.25927734 30.00280273 19.83618164 30.99707031 C21.15400112 34.43447606 20.91656635 36.33591954 19.9284668 39.84619141 C17.55013255 42.59042323 16.04872641 42.82901146 12.4284668 43.34619141 C8.9284668 42.84619141 8.9284668 42.84619141 6.9074707 40.66699219 C4.97894033 37.91813456 3.34121041 35.17654119 1.7644043 32.21337891 C1.19979492 31.16021484 0.63518555 30.10705078 0.0534668 29.02197266 C-0.8127832 27.38808594 -0.8127832 27.38808594 -1.6965332 25.72119141 C-2.85416552 23.55126828 -4.01296689 21.38196832 -5.1730957 19.21337891 C-5.68179199 18.25544434 -6.19048828 17.29750977 -6.71459961 16.31054688 C-8.10129845 13.7099161 -8.10129845 13.7099161 -10.0715332 10.84619141 C-10.49284612 6.98415634 -10.59115528 4.71222821 -8.5715332 1.34619141 C-5.59058414 -0.44237803 -3.4181616 -0.64679548 0 0 Z " fill="#FAFAFA" transform="translate(179.071533203125,261.15380859375)"/>
<path d="M0 0 C7.26 0 14.52 0 22 0 C26.71428571 9.42857143 26.71428571 9.42857143 25 15 C23.29025496 17.70709631 21.96559617 18.70580902 18.91015625 19.63671875 C14.48298034 20.43965082 14.48298034 20.43965082 12 20 C7.93165908 16.66795391 5.60787201 12.93704522 3.1875 8.3125 C2.58292969 7.17425781 1.97835937 6.03601563 1.35546875 4.86328125 C0 2 0 2 0 0 Z " fill="#FBFBFB" transform="translate(211,249)"/>
</svg>
