<svg xmlns="http://www.w3.org/2000/svg" width="20.1" height="20.1" viewBox="0 0 20.1 20.1"><path d="M17.419,21.216A.419.419,0,0,1,17,20.8v-.628a.419.419,0,1,1,.837,0V20.8A.419.419,0,0,1,17.419,21.216Z" transform="translate(-2.763 -3.209)" fill="#0e4d90"/><path d="M17.384,19.525H15.919a.419.419,0,1,1,0-.837h1.466a.628.628,0,1,0,0-1.256h-.419a1.466,1.466,0,1,1,0-2.931h1.466a.419.419,0,1,1,0,.837H16.966a.628.628,0,1,0,0,1.256h.419a1.466,1.466,0,1,1,0,2.931Z" transform="translate(-2.519 -2.356)" fill="#0e4d90"/><path d="M17.419,14.966A.419.419,0,0,1,17,14.547v-.628a.419.419,0,0,1,.837,0v.628A.419.419,0,0,1,17.419,14.966Z" transform="translate(-2.763 -2.194)" fill="#0e4d90"/><path d="M16.444,21.887a5.444,5.444,0,1,1,5.444-5.444A5.45,5.45,0,0,1,16.444,21.887Zm0-10.05a4.606,4.606,0,1,0,4.606,4.606A4.611,4.611,0,0,0,16.444,11.837Z" transform="translate(-1.788 -1.788)" fill="#0e4d90"/><path d="M7.956,20.1a2.05,2.05,0,0,1-1.481-.621L.616,13.62A2.046,2.046,0,0,1,0,12.144,2.08,2.08,0,0,1,.579,10.7L10.016.915A2.907,2.907,0,0,1,12.144,0h5.862A2.1,2.1,0,0,1,20.1,2.094V7.956a3.078,3.078,0,0,1-.2,1.084.419.419,0,0,1-.786-.291,2.25,2.25,0,0,0,.15-.792V2.094A1.258,1.258,0,0,0,18.006.837H12.144a2.078,2.078,0,0,0-1.522.657L1.181,11.287a1.237,1.237,0,0,0-.343.857,1.22,1.22,0,0,0,.368.881l5.866,5.866a1.25,1.25,0,0,0,1.532.185.419.419,0,0,1,.448.708,2.031,2.031,0,0,1-1.095.317Z" fill="#0e4d90"/><path d="M18.675,6.35A1.675,1.675,0,1,1,20.35,4.675,1.677,1.677,0,0,1,18.675,6.35Zm0-2.512a.837.837,0,1,0,.837.837A.839.839,0,0,0,18.675,3.837Z" transform="translate(-2.763 -0.488)" fill="#0e4d90"/></svg>